<mxfile host="app.diagrams.net" modified="2020-12-26T21:14:47.457Z" agent="5.0 (X11)" etag="VKrtn0WSfrTiY3WceiAz" version="14.1.2" type="github">
  <diagram id="C5RBs43oDa-KdzZeNtuy" name="Page-1">
    <mxGraphModel dx="1057" dy="1891" grid="1" gridSize="10" guides="1" tooltips="1" connect="1" arrows="1" fold="1" page="1" pageScale="1" pageWidth="827" pageHeight="1169" math="0" shadow="0">
      <root>
        <mxCell id="WIyWlLk6GJQsqaUBKTNV-0" />
        <mxCell id="WIyWlLk6GJQsqaUBKTNV-1" parent="WIyWlLk6GJQsqaUBKTNV-0" />
        <mxCell id="X6uU-ZBayT8kRttCf6og-23" value="Menu" style="swimlane;fontStyle=1;align=center;verticalAlign=top;childLayout=stackLayout;horizontal=1;startSize=26;horizontalStack=0;resizeParent=1;resizeParentMax=0;resizeLast=0;collapsible=1;marginBottom=0;" parent="WIyWlLk6GJQsqaUBKTNV-1" vertex="1">
          <mxGeometry x="600" y="-960" width="200" height="190" as="geometry">
            <mxRectangle x="40" y="40" width="60" height="26" as="alternateBounds" />
          </mxGeometry>
        </mxCell>
        <mxCell id="X6uU-ZBayT8kRttCf6og-30" value="+ _contenuDuMenu : []Button&#xa;" style="text;strokeColor=none;fillColor=none;align=left;verticalAlign=top;spacingLeft=4;spacingRight=4;overflow=hidden;rotatable=0;points=[[0,0.5],[1,0.5]];portConstraint=eastwest;" parent="X6uU-ZBayT8kRttCf6og-23" vertex="1">
          <mxGeometry y="26" width="200" height="26" as="geometry" />
        </mxCell>
        <mxCell id="X6uU-ZBayT8kRttCf6og-25" value="" style="line;strokeWidth=1;fillColor=none;align=left;verticalAlign=middle;spacingTop=-1;spacingLeft=3;spacingRight=3;rotatable=0;labelPosition=right;points=[];portConstraint=eastwest;" parent="X6uU-ZBayT8kRttCf6og-23" vertex="1">
          <mxGeometry y="52" width="200" height="8" as="geometry" />
        </mxCell>
        <mxCell id="KOgZ6uvFbi3_sXAGqL3p-29" value="+ configHauteur(float) : void" style="text;strokeColor=none;fillColor=none;align=left;verticalAlign=top;spacingLeft=4;spacingRight=4;overflow=hidden;rotatable=0;points=[[0,0.5],[1,0.5]];portConstraint=eastwest;" parent="X6uU-ZBayT8kRttCf6og-23" vertex="1">
          <mxGeometry y="60" width="200" height="26" as="geometry" />
        </mxCell>
        <mxCell id="KOgZ6uvFbi3_sXAGqL3p-30" value="+ configPosition(PVector) : void" style="text;strokeColor=none;fillColor=none;align=left;verticalAlign=top;spacingLeft=4;spacingRight=4;overflow=hidden;rotatable=0;points=[[0,0.5],[1,0.5]];portConstraint=eastwest;" parent="X6uU-ZBayT8kRttCf6og-23" vertex="1">
          <mxGeometry y="86" width="200" height="26" as="geometry" />
        </mxCell>
        <mxCell id="KOgZ6uvFbi3_sXAGqL3p-32" value="+ configLargeur(float) : void" style="text;strokeColor=none;fillColor=none;align=left;verticalAlign=top;spacingLeft=4;spacingRight=4;overflow=hidden;rotatable=0;points=[[0,0.5],[1,0.5]];portConstraint=eastwest;" parent="X6uU-ZBayT8kRttCf6og-23" vertex="1">
          <mxGeometry y="112" width="200" height="26" as="geometry" />
        </mxCell>
        <mxCell id="X6uU-ZBayT8kRttCf6og-77" value="+ configPopup(int, int) : void" style="text;strokeColor=none;fillColor=none;align=left;verticalAlign=top;spacingLeft=4;spacingRight=4;overflow=hidden;rotatable=0;points=[[0,0.5],[1,0.5]];portConstraint=eastwest;" parent="X6uU-ZBayT8kRttCf6og-23" vertex="1">
          <mxGeometry y="138" width="200" height="26" as="geometry" />
        </mxCell>
        <mxCell id="X6uU-ZBayT8kRttCf6og-78" value="+ affiche() : void" style="text;strokeColor=none;fillColor=none;align=left;verticalAlign=top;spacingLeft=4;spacingRight=4;overflow=hidden;rotatable=0;points=[[0,0.5],[1,0.5]];portConstraint=eastwest;" parent="X6uU-ZBayT8kRttCf6og-23" vertex="1">
          <mxGeometry y="164" width="200" height="26" as="geometry" />
        </mxCell>
        <mxCell id="X6uU-ZBayT8kRttCf6og-31" value="Page" style="swimlane;fontStyle=1;align=center;verticalAlign=top;childLayout=stackLayout;horizontal=1;startSize=26;horizontalStack=0;resizeParent=1;resizeParentMax=0;resizeLast=0;collapsible=1;marginBottom=0;" parent="WIyWlLk6GJQsqaUBKTNV-1" vertex="1">
          <mxGeometry x="60" y="-1080" width="180" height="112" as="geometry">
            <mxRectangle x="250" y="40" width="60" height="26" as="alternateBounds" />
          </mxGeometry>
        </mxCell>
        <mxCell id="X6uU-ZBayT8kRttCf6og-32" value="+ _tableDeBoite : []Boite" style="text;strokeColor=none;fillColor=none;align=left;verticalAlign=top;spacingLeft=4;spacingRight=4;overflow=hidden;rotatable=0;points=[[0,0.5],[1,0.5]];portConstraint=eastwest;" parent="X6uU-ZBayT8kRttCf6og-31" vertex="1">
          <mxGeometry y="26" width="180" height="26" as="geometry" />
        </mxCell>
        <mxCell id="X6uU-ZBayT8kRttCf6og-35" value="+ _tableDePopup : []Popup" style="text;strokeColor=none;fillColor=none;align=left;verticalAlign=top;spacingLeft=4;spacingRight=4;overflow=hidden;rotatable=0;points=[[0,0.5],[1,0.5]];portConstraint=eastwest;" parent="X6uU-ZBayT8kRttCf6og-31" vertex="1">
          <mxGeometry y="52" width="180" height="26" as="geometry" />
        </mxCell>
        <mxCell id="X6uU-ZBayT8kRttCf6og-33" value="" style="line;strokeWidth=1;fillColor=none;align=left;verticalAlign=middle;spacingTop=-1;spacingLeft=3;spacingRight=3;rotatable=0;labelPosition=right;points=[];portConstraint=eastwest;" parent="X6uU-ZBayT8kRttCf6og-31" vertex="1">
          <mxGeometry y="78" width="180" height="8" as="geometry" />
        </mxCell>
        <mxCell id="TGnBtDwXIPw3IA33v4NN-0" style="edgeStyle=orthogonalEdgeStyle;rounded=0;orthogonalLoop=1;jettySize=auto;html=1;exitX=1;exitY=0.5;exitDx=0;exitDy=0;entryX=0;entryY=0.5;entryDx=0;entryDy=0;" parent="X6uU-ZBayT8kRttCf6og-31" source="KOgZ6uvFbi3_sXAGqL3p-27" target="X6uU-ZBayT8kRttCf6og-35" edge="1">
          <mxGeometry relative="1" as="geometry">
            <Array as="points">
              <mxPoint x="200" y="99" />
              <mxPoint x="200" y="130" />
              <mxPoint x="-20" y="130" />
              <mxPoint x="-20" y="65" />
            </Array>
          </mxGeometry>
        </mxCell>
        <mxCell id="TGnBtDwXIPw3IA33v4NN-1" style="edgeStyle=orthogonalEdgeStyle;rounded=0;orthogonalLoop=1;jettySize=auto;html=1;exitX=1;exitY=0.5;exitDx=0;exitDy=0;entryX=0;entryY=0.5;entryDx=0;entryDy=0;" parent="X6uU-ZBayT8kRttCf6og-31" source="KOgZ6uvFbi3_sXAGqL3p-27" target="X6uU-ZBayT8kRttCf6og-32" edge="1">
          <mxGeometry relative="1" as="geometry">
            <Array as="points">
              <mxPoint x="210" y="99" />
              <mxPoint x="210" y="140" />
              <mxPoint x="-30" y="140" />
              <mxPoint x="-30" y="39" />
            </Array>
          </mxGeometry>
        </mxCell>
        <mxCell id="KOgZ6uvFbi3_sXAGqL3p-27" value="+ affiche() : void" style="text;strokeColor=none;fillColor=none;align=left;verticalAlign=top;spacingLeft=4;spacingRight=4;overflow=hidden;rotatable=0;points=[[0,0.5],[1,0.5]];portConstraint=eastwest;" parent="X6uU-ZBayT8kRttCf6og-31" vertex="1">
          <mxGeometry y="86" width="180" height="26" as="geometry" />
        </mxCell>
        <mxCell id="KOgZ6uvFbi3_sXAGqL3p-33" value="Button" style="swimlane;fontStyle=1;align=center;verticalAlign=top;childLayout=stackLayout;horizontal=1;startSize=26;horizontalStack=0;resizeParent=1;resizeParentMax=0;resizeLast=0;collapsible=1;marginBottom=0;" parent="WIyWlLk6GJQsqaUBKTNV-1" vertex="1">
          <mxGeometry x="920" y="-850" width="240" height="216" as="geometry">
            <mxRectangle x="250" y="40" width="60" height="26" as="alternateBounds" />
          </mxGeometry>
        </mxCell>
        <mxCell id="KOgZ6uvFbi3_sXAGqL3p-40" value="" style="line;strokeWidth=1;fillColor=none;align=left;verticalAlign=middle;spacingTop=-1;spacingLeft=3;spacingRight=3;rotatable=0;labelPosition=right;points=[];portConstraint=eastwest;" parent="KOgZ6uvFbi3_sXAGqL3p-33" vertex="1">
          <mxGeometry y="26" width="240" height="8" as="geometry" />
        </mxCell>
        <mxCell id="TGnBtDwXIPw3IA33v4NN-88" style="edgeStyle=orthogonalEdgeStyle;rounded=0;orthogonalLoop=1;jettySize=auto;html=1;exitX=1;exitY=0.5;exitDx=0;exitDy=0;entryX=1;entryY=0.5;entryDx=0;entryDy=0;" parent="KOgZ6uvFbi3_sXAGqL3p-33" source="KOgZ6uvFbi3_sXAGqL3p-44" target="KOgZ6uvFbi3_sXAGqL3p-68" edge="1">
          <mxGeometry relative="1" as="geometry">
            <Array as="points">
              <mxPoint x="260" y="47" />
              <mxPoint x="260" y="73" />
            </Array>
          </mxGeometry>
        </mxCell>
        <mxCell id="TGnBtDwXIPw3IA33v4NN-89" style="edgeStyle=orthogonalEdgeStyle;rounded=0;orthogonalLoop=1;jettySize=auto;html=1;exitX=1;exitY=0.5;exitDx=0;exitDy=0;entryX=1;entryY=0.5;entryDx=0;entryDy=0;" parent="KOgZ6uvFbi3_sXAGqL3p-33" source="KOgZ6uvFbi3_sXAGqL3p-44" target="KOgZ6uvFbi3_sXAGqL3p-67" edge="1">
          <mxGeometry relative="1" as="geometry">
            <Array as="points">
              <mxPoint x="260" y="47" />
              <mxPoint x="260" y="99" />
            </Array>
          </mxGeometry>
        </mxCell>
        <mxCell id="TGnBtDwXIPw3IA33v4NN-91" style="edgeStyle=orthogonalEdgeStyle;rounded=0;orthogonalLoop=1;jettySize=auto;html=1;exitX=1;exitY=0.5;exitDx=0;exitDy=0;entryX=1;entryY=0.5;entryDx=0;entryDy=0;" parent="KOgZ6uvFbi3_sXAGqL3p-33" source="KOgZ6uvFbi3_sXAGqL3p-44" target="KOgZ6uvFbi3_sXAGqL3p-47" edge="1">
          <mxGeometry relative="1" as="geometry">
            <Array as="points">
              <mxPoint x="260" y="47" />
              <mxPoint x="260" y="151" />
            </Array>
          </mxGeometry>
        </mxCell>
        <mxCell id="TGnBtDwXIPw3IA33v4NN-93" style="edgeStyle=orthogonalEdgeStyle;rounded=0;orthogonalLoop=1;jettySize=auto;html=1;exitX=1;exitY=0.5;exitDx=0;exitDy=0;entryX=1;entryY=0.5;entryDx=0;entryDy=0;" parent="KOgZ6uvFbi3_sXAGqL3p-33" source="KOgZ6uvFbi3_sXAGqL3p-44" target="KOgZ6uvFbi3_sXAGqL3p-46" edge="1">
          <mxGeometry relative="1" as="geometry" />
        </mxCell>
        <mxCell id="KOgZ6uvFbi3_sXAGqL3p-44" value="+ affiche() : void" style="text;strokeColor=none;fillColor=none;align=left;verticalAlign=top;spacingLeft=4;spacingRight=4;overflow=hidden;rotatable=0;points=[[0,0.5],[1,0.5]];portConstraint=eastwest;" parent="KOgZ6uvFbi3_sXAGqL3p-33" vertex="1">
          <mxGeometry y="34" width="240" height="26" as="geometry" />
        </mxCell>
        <mxCell id="KOgZ6uvFbi3_sXAGqL3p-68" value="+ afficheBouton() : void" style="text;strokeColor=none;fillColor=none;align=left;verticalAlign=top;spacingLeft=4;spacingRight=4;overflow=hidden;rotatable=0;points=[[0,0.5],[1,0.5]];portConstraint=eastwest;" parent="KOgZ6uvFbi3_sXAGqL3p-33" vertex="1">
          <mxGeometry y="60" width="240" height="26" as="geometry" />
        </mxCell>
        <mxCell id="TGnBtDwXIPw3IA33v4NN-90" style="edgeStyle=orthogonalEdgeStyle;rounded=0;orthogonalLoop=1;jettySize=auto;html=1;exitX=0;exitY=0.5;exitDx=0;exitDy=0;entryX=0;entryY=0.5;entryDx=0;entryDy=0;" parent="KOgZ6uvFbi3_sXAGqL3p-33" source="KOgZ6uvFbi3_sXAGqL3p-67" target="KOgZ6uvFbi3_sXAGqL3p-45" edge="1">
          <mxGeometry relative="1" as="geometry">
            <Array as="points">
              <mxPoint x="-20" y="99" />
              <mxPoint x="-20" y="125" />
            </Array>
          </mxGeometry>
        </mxCell>
        <mxCell id="KOgZ6uvFbi3_sXAGqL3p-67" value="+ esCliquer() : boolean" style="text;strokeColor=none;fillColor=none;align=left;verticalAlign=top;spacingLeft=4;spacingRight=4;overflow=hidden;rotatable=0;points=[[0,0.5],[1,0.5]];portConstraint=eastwest;" parent="KOgZ6uvFbi3_sXAGqL3p-33" vertex="1">
          <mxGeometry y="86" width="240" height="26" as="geometry" />
        </mxCell>
        <mxCell id="KOgZ6uvFbi3_sXAGqL3p-45" value="+ afficheBoutonCliquer() : void" style="text;strokeColor=none;fillColor=none;align=left;verticalAlign=top;spacingLeft=4;spacingRight=4;overflow=hidden;rotatable=0;points=[[0,0.5],[1,0.5]];portConstraint=eastwest;" parent="KOgZ6uvFbi3_sXAGqL3p-33" vertex="1">
          <mxGeometry y="112" width="240" height="26" as="geometry" />
        </mxCell>
        <mxCell id="TGnBtDwXIPw3IA33v4NN-92" style="edgeStyle=orthogonalEdgeStyle;rounded=0;orthogonalLoop=1;jettySize=auto;html=1;exitX=0;exitY=0.5;exitDx=0;exitDy=0;entryX=0;entryY=0.5;entryDx=0;entryDy=0;" parent="KOgZ6uvFbi3_sXAGqL3p-33" source="KOgZ6uvFbi3_sXAGqL3p-47" target="KOgZ6uvFbi3_sXAGqL3p-69" edge="1">
          <mxGeometry relative="1" as="geometry">
            <Array as="points">
              <mxPoint x="-20" y="151" />
              <mxPoint x="-20" y="177" />
            </Array>
          </mxGeometry>
        </mxCell>
        <mxCell id="KOgZ6uvFbi3_sXAGqL3p-47" value="+ estSurvoler() : boolean" style="text;strokeColor=none;fillColor=none;align=left;verticalAlign=top;spacingLeft=4;spacingRight=4;overflow=hidden;rotatable=0;points=[[0,0.5],[1,0.5]];portConstraint=eastwest;" parent="KOgZ6uvFbi3_sXAGqL3p-33" vertex="1">
          <mxGeometry y="138" width="240" height="26" as="geometry" />
        </mxCell>
        <mxCell id="KOgZ6uvFbi3_sXAGqL3p-69" value="+ afficheBoutonSurvoler() : void " style="text;strokeColor=none;fillColor=none;align=left;verticalAlign=top;spacingLeft=4;spacingRight=4;overflow=hidden;rotatable=0;points=[[0,0.5],[1,0.5]];portConstraint=eastwest;" parent="KOgZ6uvFbi3_sXAGqL3p-33" vertex="1">
          <mxGeometry y="164" width="240" height="26" as="geometry" />
        </mxCell>
        <mxCell id="KOgZ6uvFbi3_sXAGqL3p-46" value="+ afficheBoutonActiver() : void " style="text;strokeColor=none;fillColor=none;align=left;verticalAlign=top;spacingLeft=4;spacingRight=4;overflow=hidden;rotatable=0;points=[[0,0.5],[1,0.5]];portConstraint=eastwest;" parent="KOgZ6uvFbi3_sXAGqL3p-33" vertex="1">
          <mxGeometry y="190" width="240" height="26" as="geometry" />
        </mxCell>
        <mxCell id="KOgZ6uvFbi3_sXAGqL3p-71" value="Boite" style="swimlane;fontStyle=1;align=center;verticalAlign=top;childLayout=stackLayout;horizontal=1;startSize=26;horizontalStack=0;resizeParent=1;resizeParentMax=0;resizeLast=0;collapsible=1;marginBottom=0;" parent="WIyWlLk6GJQsqaUBKTNV-1" vertex="1">
          <mxGeometry x="320" y="-1080" width="160" height="266" as="geometry">
            <mxRectangle x="250" y="40" width="60" height="26" as="alternateBounds" />
          </mxGeometry>
        </mxCell>
        <mxCell id="KOgZ6uvFbi3_sXAGqL3p-90" value="" style="line;strokeWidth=1;fillColor=none;align=left;verticalAlign=middle;spacingTop=-1;spacingLeft=3;spacingRight=3;rotatable=0;labelPosition=right;points=[];portConstraint=eastwest;" parent="KOgZ6uvFbi3_sXAGqL3p-71" vertex="1">
          <mxGeometry y="26" width="160" height="8" as="geometry" />
        </mxCell>
        <mxCell id="TGnBtDwXIPw3IA33v4NN-3" style="edgeStyle=orthogonalEdgeStyle;rounded=0;orthogonalLoop=1;jettySize=auto;html=1;exitX=1;exitY=0.501;exitDx=0;exitDy=0;entryX=0;entryY=0.5;entryDx=0;entryDy=0;exitPerimeter=0;" parent="KOgZ6uvFbi3_sXAGqL3p-71" source="KOgZ6uvFbi3_sXAGqL3p-91" target="KOgZ6uvFbi3_sXAGqL3p-96" edge="1">
          <mxGeometry relative="1" as="geometry">
            <Array as="points">
              <mxPoint x="200" y="47" />
              <mxPoint x="200" y="-20" />
              <mxPoint x="-20" y="-20" />
              <mxPoint x="-20" y="72" />
            </Array>
          </mxGeometry>
        </mxCell>
        <mxCell id="TGnBtDwXIPw3IA33v4NN-4" style="edgeStyle=orthogonalEdgeStyle;rounded=0;orthogonalLoop=1;jettySize=auto;html=1;exitX=1;exitY=0.5;exitDx=0;exitDy=0;entryX=0;entryY=0.5;entryDx=0;entryDy=0;" parent="KOgZ6uvFbi3_sXAGqL3p-71" source="KOgZ6uvFbi3_sXAGqL3p-91" target="KOgZ6uvFbi3_sXAGqL3p-97" edge="1">
          <mxGeometry relative="1" as="geometry">
            <Array as="points">
              <mxPoint x="200" y="47" />
              <mxPoint x="200" y="-20" />
              <mxPoint x="-20" y="-20" />
              <mxPoint x="-20" y="97" />
            </Array>
          </mxGeometry>
        </mxCell>
        <mxCell id="TGnBtDwXIPw3IA33v4NN-5" style="edgeStyle=orthogonalEdgeStyle;rounded=0;orthogonalLoop=1;jettySize=auto;html=1;exitX=1;exitY=0.5;exitDx=0;exitDy=0;entryX=0;entryY=0.5;entryDx=0;entryDy=0;" parent="KOgZ6uvFbi3_sXAGqL3p-71" source="KOgZ6uvFbi3_sXAGqL3p-91" target="KOgZ6uvFbi3_sXAGqL3p-98" edge="1">
          <mxGeometry relative="1" as="geometry">
            <Array as="points">
              <mxPoint x="200" y="47" />
              <mxPoint x="200" y="-20" />
              <mxPoint x="-20" y="-20" />
              <mxPoint x="-20" y="123" />
            </Array>
          </mxGeometry>
        </mxCell>
        <mxCell id="TGnBtDwXIPw3IA33v4NN-6" style="edgeStyle=orthogonalEdgeStyle;rounded=0;orthogonalLoop=1;jettySize=auto;html=1;exitX=1;exitY=0.5;exitDx=0;exitDy=0;entryX=0;entryY=0.5;entryDx=0;entryDy=0;" parent="KOgZ6uvFbi3_sXAGqL3p-71" source="KOgZ6uvFbi3_sXAGqL3p-91" target="KOgZ6uvFbi3_sXAGqL3p-99" edge="1">
          <mxGeometry relative="1" as="geometry">
            <Array as="points">
              <mxPoint x="200" y="47" />
              <mxPoint x="200" y="-20" />
              <mxPoint x="-20" y="-20" />
              <mxPoint x="-20" y="149" />
            </Array>
          </mxGeometry>
        </mxCell>
        <mxCell id="TGnBtDwXIPw3IA33v4NN-7" style="edgeStyle=orthogonalEdgeStyle;rounded=0;orthogonalLoop=1;jettySize=auto;html=1;exitX=1;exitY=0.5;exitDx=0;exitDy=0;entryX=0;entryY=0.5;entryDx=0;entryDy=0;" parent="KOgZ6uvFbi3_sXAGqL3p-71" source="KOgZ6uvFbi3_sXAGqL3p-91" target="KOgZ6uvFbi3_sXAGqL3p-100" edge="1">
          <mxGeometry relative="1" as="geometry">
            <Array as="points">
              <mxPoint x="200" y="47" />
              <mxPoint x="200" y="-20" />
              <mxPoint x="-20" y="-20" />
              <mxPoint x="-20" y="175" />
            </Array>
          </mxGeometry>
        </mxCell>
        <mxCell id="TGnBtDwXIPw3IA33v4NN-8" style="edgeStyle=orthogonalEdgeStyle;rounded=0;orthogonalLoop=1;jettySize=auto;html=1;exitX=1;exitY=0.5;exitDx=0;exitDy=0;entryX=0;entryY=0.5;entryDx=0;entryDy=0;" parent="KOgZ6uvFbi3_sXAGqL3p-71" source="KOgZ6uvFbi3_sXAGqL3p-91" target="KOgZ6uvFbi3_sXAGqL3p-101" edge="1">
          <mxGeometry relative="1" as="geometry">
            <Array as="points">
              <mxPoint x="200" y="47" />
              <mxPoint x="200" y="-20" />
              <mxPoint x="-20" y="-20" />
              <mxPoint x="-20" y="201" />
            </Array>
          </mxGeometry>
        </mxCell>
        <mxCell id="TGnBtDwXIPw3IA33v4NN-9" style="edgeStyle=orthogonalEdgeStyle;rounded=0;orthogonalLoop=1;jettySize=auto;html=1;exitX=1;exitY=0.5;exitDx=0;exitDy=0;entryX=0;entryY=0.5;entryDx=0;entryDy=0;" parent="KOgZ6uvFbi3_sXAGqL3p-71" source="KOgZ6uvFbi3_sXAGqL3p-91" target="KOgZ6uvFbi3_sXAGqL3p-102" edge="1">
          <mxGeometry relative="1" as="geometry">
            <Array as="points">
              <mxPoint x="200" y="47" />
              <mxPoint x="200" y="-20" />
              <mxPoint x="-20" y="-20" />
              <mxPoint x="-20" y="227" />
            </Array>
          </mxGeometry>
        </mxCell>
        <mxCell id="TGnBtDwXIPw3IA33v4NN-10" style="edgeStyle=orthogonalEdgeStyle;rounded=0;orthogonalLoop=1;jettySize=auto;html=1;exitX=1;exitY=0.5;exitDx=0;exitDy=0;entryX=0;entryY=0.5;entryDx=0;entryDy=0;" parent="KOgZ6uvFbi3_sXAGqL3p-71" source="KOgZ6uvFbi3_sXAGqL3p-91" target="KOgZ6uvFbi3_sXAGqL3p-103" edge="1">
          <mxGeometry relative="1" as="geometry">
            <Array as="points">
              <mxPoint x="200" y="47" />
              <mxPoint x="200" y="-20" />
              <mxPoint x="-20" y="-20" />
              <mxPoint x="-20" y="253" />
            </Array>
          </mxGeometry>
        </mxCell>
        <mxCell id="KOgZ6uvFbi3_sXAGqL3p-91" value="+ affiche() : void" style="text;strokeColor=none;fillColor=none;align=left;verticalAlign=top;spacingLeft=4;spacingRight=4;overflow=hidden;rotatable=0;points=[[0,0.5],[1,0.5]];portConstraint=eastwest;" parent="KOgZ6uvFbi3_sXAGqL3p-71" vertex="1">
          <mxGeometry y="34" width="160" height="26" as="geometry" />
        </mxCell>
        <mxCell id="KOgZ6uvFbi3_sXAGqL3p-96" value="+ afficheContour () : void" style="text;strokeColor=none;fillColor=none;align=left;verticalAlign=top;spacingLeft=4;spacingRight=4;overflow=hidden;rotatable=0;points=[[0,0.5],[1,0.5]];portConstraint=eastwest;" parent="KOgZ6uvFbi3_sXAGqL3p-71" vertex="1">
          <mxGeometry y="60" width="160" height="24" as="geometry" />
        </mxCell>
        <mxCell id="KOgZ6uvFbi3_sXAGqL3p-97" value="+ afficheTexte () : void" style="text;strokeColor=none;fillColor=none;align=left;verticalAlign=top;spacingLeft=4;spacingRight=4;overflow=hidden;rotatable=0;points=[[0,0.5],[1,0.5]];portConstraint=eastwest;" parent="KOgZ6uvFbi3_sXAGqL3p-71" vertex="1">
          <mxGeometry y="84" width="160" height="26" as="geometry" />
        </mxCell>
        <mxCell id="KOgZ6uvFbi3_sXAGqL3p-98" value="+ afficheNiveau () : void" style="text;strokeColor=none;fillColor=none;align=left;verticalAlign=top;spacingLeft=4;spacingRight=4;overflow=hidden;rotatable=0;points=[[0,0.5],[1,0.5]];portConstraint=eastwest;" parent="KOgZ6uvFbi3_sXAGqL3p-71" vertex="1">
          <mxGeometry y="110" width="160" height="26" as="geometry" />
        </mxCell>
        <mxCell id="KOgZ6uvFbi3_sXAGqL3p-99" value="+ afficheMenu () : void" style="text;strokeColor=none;fillColor=none;align=left;verticalAlign=top;spacingLeft=4;spacingRight=4;overflow=hidden;rotatable=0;points=[[0,0.5],[1,0.5]];portConstraint=eastwest;" parent="KOgZ6uvFbi3_sXAGqL3p-71" vertex="1">
          <mxGeometry y="136" width="160" height="26" as="geometry" />
        </mxCell>
        <mxCell id="KOgZ6uvFbi3_sXAGqL3p-100" value="+ afficheNom () : void" style="text;strokeColor=none;fillColor=none;align=left;verticalAlign=top;spacingLeft=4;spacingRight=4;overflow=hidden;rotatable=0;points=[[0,0.5],[1,0.5]];portConstraint=eastwest;" parent="KOgZ6uvFbi3_sXAGqL3p-71" vertex="1">
          <mxGeometry y="162" width="160" height="26" as="geometry" />
        </mxCell>
        <mxCell id="KOgZ6uvFbi3_sXAGqL3p-101" value="+ afficheScore () : void" style="text;strokeColor=none;fillColor=none;align=left;verticalAlign=top;spacingLeft=4;spacingRight=4;overflow=hidden;rotatable=0;points=[[0,0.5],[1,0.5]];portConstraint=eastwest;" parent="KOgZ6uvFbi3_sXAGqL3p-71" vertex="1">
          <mxGeometry y="188" width="160" height="26" as="geometry" />
        </mxCell>
        <mxCell id="KOgZ6uvFbi3_sXAGqL3p-102" value="+ afficheVariable () : void" style="text;strokeColor=none;fillColor=none;align=left;verticalAlign=top;spacingLeft=4;spacingRight=4;overflow=hidden;rotatable=0;points=[[0,0.5],[1,0.5]];portConstraint=eastwest;" parent="KOgZ6uvFbi3_sXAGqL3p-71" vertex="1">
          <mxGeometry y="214" width="160" height="26" as="geometry" />
        </mxCell>
        <mxCell id="KOgZ6uvFbi3_sXAGqL3p-103" value="+ afficheEditeur () : void" style="text;strokeColor=none;fillColor=none;align=left;verticalAlign=top;spacingLeft=4;spacingRight=4;overflow=hidden;rotatable=0;points=[[0,0.5],[1,0.5]];portConstraint=eastwest;" parent="KOgZ6uvFbi3_sXAGqL3p-71" vertex="1">
          <mxGeometry y="240" width="160" height="26" as="geometry" />
        </mxCell>
        <mxCell id="KOgZ6uvFbi3_sXAGqL3p-108" value="Level" style="swimlane;fontStyle=1;align=center;verticalAlign=top;childLayout=stackLayout;horizontal=1;startSize=26;horizontalStack=0;resizeParent=1;resizeParentMax=0;resizeLast=0;collapsible=1;marginBottom=0;" parent="WIyWlLk6GJQsqaUBKTNV-1" vertex="1">
          <mxGeometry x="600" y="-1140" width="200" height="164" as="geometry">
            <mxRectangle x="250" y="40" width="60" height="26" as="alternateBounds" />
          </mxGeometry>
        </mxCell>
        <mxCell id="KOgZ6uvFbi3_sXAGqL3p-117" value="+ _mures : Wall[]" style="text;strokeColor=none;fillColor=none;align=left;verticalAlign=top;spacingLeft=4;spacingRight=4;overflow=hidden;rotatable=0;points=[[0,0.5],[1,0.5]];portConstraint=eastwest;" parent="KOgZ6uvFbi3_sXAGqL3p-108" vertex="1">
          <mxGeometry y="26" width="200" height="26" as="geometry" />
        </mxCell>
        <mxCell id="KOgZ6uvFbi3_sXAGqL3p-118" value="+ _Mathurin : Pers" style="text;strokeColor=none;fillColor=none;align=left;verticalAlign=top;spacingLeft=4;spacingRight=4;overflow=hidden;rotatable=0;points=[[0,0.5],[1,0.5]];portConstraint=eastwest;" parent="KOgZ6uvFbi3_sXAGqL3p-108" vertex="1">
          <mxGeometry y="52" width="200" height="26" as="geometry" />
        </mxCell>
        <mxCell id="KOgZ6uvFbi3_sXAGqL3p-119" value="+ _sortie : Fin" style="text;strokeColor=none;fillColor=none;align=left;verticalAlign=top;spacingLeft=4;spacingRight=4;overflow=hidden;rotatable=0;points=[[0,0.5],[1,0.5]];portConstraint=eastwest;" parent="KOgZ6uvFbi3_sXAGqL3p-108" vertex="1">
          <mxGeometry y="78" width="200" height="26" as="geometry" />
        </mxCell>
        <mxCell id="KOgZ6uvFbi3_sXAGqL3p-127" value="" style="line;strokeWidth=1;fillColor=none;align=left;verticalAlign=middle;spacingTop=-1;spacingLeft=3;spacingRight=3;rotatable=0;labelPosition=right;points=[];portConstraint=eastwest;" parent="KOgZ6uvFbi3_sXAGqL3p-108" vertex="1">
          <mxGeometry y="104" width="200" height="8" as="geometry" />
        </mxCell>
        <mxCell id="TGnBtDwXIPw3IA33v4NN-76" style="edgeStyle=orthogonalEdgeStyle;rounded=0;orthogonalLoop=1;jettySize=auto;html=1;exitX=1;exitY=0.5;exitDx=0;exitDy=0;entryX=1;entryY=0.5;entryDx=0;entryDy=0;" parent="KOgZ6uvFbi3_sXAGqL3p-108" source="KOgZ6uvFbi3_sXAGqL3p-128" target="KOgZ6uvFbi3_sXAGqL3p-130" edge="1">
          <mxGeometry relative="1" as="geometry">
            <Array as="points">
              <mxPoint x="230" y="125" />
              <mxPoint x="230" y="151" />
            </Array>
          </mxGeometry>
        </mxCell>
        <mxCell id="KOgZ6uvFbi3_sXAGqL3p-128" value="+ affiche () : void" style="text;strokeColor=none;fillColor=none;align=left;verticalAlign=top;spacingLeft=4;spacingRight=4;overflow=hidden;rotatable=0;points=[[0,0.5],[1,0.5]];portConstraint=eastwest;" parent="KOgZ6uvFbi3_sXAGqL3p-108" vertex="1">
          <mxGeometry y="112" width="200" height="26" as="geometry" />
        </mxCell>
        <mxCell id="KOgZ6uvFbi3_sXAGqL3p-130" value="+ afficheFin () : void" style="text;strokeColor=none;fillColor=none;align=left;verticalAlign=top;spacingLeft=4;spacingRight=4;overflow=hidden;rotatable=0;points=[[0,0.5],[1,0.5]];portConstraint=eastwest;" parent="KOgZ6uvFbi3_sXAGqL3p-108" vertex="1">
          <mxGeometry y="138" width="200" height="26" as="geometry" />
        </mxCell>
        <mxCell id="KOgZ6uvFbi3_sXAGqL3p-219" value="Fin" style="swimlane;fontStyle=1;align=center;verticalAlign=top;childLayout=stackLayout;horizontal=1;startSize=26;horizontalStack=0;resizeParent=1;resizeParentMax=0;resizeLast=0;collapsible=1;marginBottom=0;" parent="WIyWlLk6GJQsqaUBKTNV-1" vertex="1">
          <mxGeometry x="920" y="-1140" width="240" height="60" as="geometry">
            <mxRectangle x="250" y="40" width="60" height="26" as="alternateBounds" />
          </mxGeometry>
        </mxCell>
        <mxCell id="KOgZ6uvFbi3_sXAGqL3p-231" value="" style="line;strokeWidth=1;fillColor=none;align=left;verticalAlign=middle;spacingTop=-1;spacingLeft=3;spacingRight=3;rotatable=0;labelPosition=right;points=[];portConstraint=eastwest;" parent="KOgZ6uvFbi3_sXAGqL3p-219" vertex="1">
          <mxGeometry y="26" width="240" height="8" as="geometry" />
        </mxCell>
        <mxCell id="KOgZ6uvFbi3_sXAGqL3p-232" value="+ affiche (int, int, float, float, PVector) : void" style="text;strokeColor=none;fillColor=none;align=left;verticalAlign=top;spacingLeft=4;spacingRight=4;overflow=hidden;rotatable=0;points=[[0,0.5],[1,0.5]];portConstraint=eastwest;" parent="KOgZ6uvFbi3_sXAGqL3p-219" vertex="1">
          <mxGeometry y="34" width="240" height="26" as="geometry" />
        </mxCell>
        <mxCell id="KOgZ6uvFbi3_sXAGqL3p-241" value="Pers" style="swimlane;fontStyle=1;align=center;verticalAlign=top;childLayout=stackLayout;horizontal=1;startSize=26;horizontalStack=0;resizeParent=1;resizeParentMax=0;resizeLast=0;collapsible=1;marginBottom=0;" parent="WIyWlLk6GJQsqaUBKTNV-1" vertex="1">
          <mxGeometry x="920" y="-1000" width="240" height="112" as="geometry">
            <mxRectangle x="250" y="40" width="60" height="26" as="alternateBounds" />
          </mxGeometry>
        </mxCell>
        <mxCell id="KOgZ6uvFbi3_sXAGqL3p-260" value="&#xa;" style="line;strokeWidth=1;fillColor=none;align=left;verticalAlign=middle;spacingTop=-1;spacingLeft=3;spacingRight=3;rotatable=0;labelPosition=right;points=[];portConstraint=eastwest;" parent="KOgZ6uvFbi3_sXAGqL3p-241" vertex="1">
          <mxGeometry y="26" width="240" height="8" as="geometry" />
        </mxCell>
        <mxCell id="TGnBtDwXIPw3IA33v4NN-80" style="edgeStyle=orthogonalEdgeStyle;rounded=0;orthogonalLoop=1;jettySize=auto;html=1;exitX=1;exitY=0.5;exitDx=0;exitDy=0;entryX=1;entryY=0.5;entryDx=0;entryDy=0;" parent="KOgZ6uvFbi3_sXAGqL3p-241" source="KOgZ6uvFbi3_sXAGqL3p-261" target="KOgZ6uvFbi3_sXAGqL3p-262" edge="1">
          <mxGeometry relative="1" as="geometry">
            <Array as="points">
              <mxPoint x="260" y="47" />
              <mxPoint x="260" y="73" />
            </Array>
          </mxGeometry>
        </mxCell>
        <mxCell id="TGnBtDwXIPw3IA33v4NN-81" style="edgeStyle=orthogonalEdgeStyle;rounded=0;orthogonalLoop=1;jettySize=auto;html=1;exitX=1;exitY=0.5;exitDx=0;exitDy=0;entryX=1;entryY=0.5;entryDx=0;entryDy=0;" parent="KOgZ6uvFbi3_sXAGqL3p-241" source="KOgZ6uvFbi3_sXAGqL3p-261" target="KOgZ6uvFbi3_sXAGqL3p-268" edge="1">
          <mxGeometry relative="1" as="geometry">
            <Array as="points">
              <mxPoint x="260" y="47" />
              <mxPoint x="260" y="99" />
            </Array>
          </mxGeometry>
        </mxCell>
        <mxCell id="KOgZ6uvFbi3_sXAGqL3p-261" value="+ affiche () : void" style="text;strokeColor=none;fillColor=none;align=left;verticalAlign=top;spacingLeft=4;spacingRight=4;overflow=hidden;rotatable=0;points=[[0,0.5],[1,0.5]];portConstraint=eastwest;" parent="KOgZ6uvFbi3_sXAGqL3p-241" vertex="1">
          <mxGeometry y="34" width="240" height="26" as="geometry" />
        </mxCell>
        <mxCell id="KOgZ6uvFbi3_sXAGqL3p-262" value="+ deplace (int, int) : void" style="text;strokeColor=none;fillColor=none;align=left;verticalAlign=top;spacingLeft=4;spacingRight=4;overflow=hidden;rotatable=0;points=[[0,0.5],[1,0.5]];portConstraint=eastwest;" parent="KOgZ6uvFbi3_sXAGqL3p-241" vertex="1">
          <mxGeometry y="60" width="240" height="26" as="geometry" />
        </mxCell>
        <mxCell id="KOgZ6uvFbi3_sXAGqL3p-268" value="+ seDeplace () : boolean" style="text;strokeColor=none;fillColor=none;align=left;verticalAlign=top;spacingLeft=4;spacingRight=4;overflow=hidden;rotatable=0;points=[[0,0.5],[1,0.5]];portConstraint=eastwest;" parent="KOgZ6uvFbi3_sXAGqL3p-241" vertex="1">
          <mxGeometry y="86" width="240" height="26" as="geometry" />
        </mxCell>
        <mxCell id="KOgZ6uvFbi3_sXAGqL3p-318" value="Wall" style="swimlane;fontStyle=1;align=center;verticalAlign=top;childLayout=stackLayout;horizontal=1;startSize=26;horizontalStack=0;resizeParent=1;resizeParentMax=0;resizeLast=0;collapsible=1;marginBottom=0;" parent="WIyWlLk6GJQsqaUBKTNV-1" vertex="1">
          <mxGeometry x="920" y="-1070" width="240" height="60" as="geometry">
            <mxRectangle x="250" y="40" width="60" height="26" as="alternateBounds" />
          </mxGeometry>
        </mxCell>
        <mxCell id="KOgZ6uvFbi3_sXAGqL3p-340" value="&#xa;" style="line;strokeWidth=1;fillColor=none;align=left;verticalAlign=middle;spacingTop=-1;spacingLeft=3;spacingRight=3;rotatable=0;labelPosition=right;points=[];portConstraint=eastwest;" parent="KOgZ6uvFbi3_sXAGqL3p-318" vertex="1">
          <mxGeometry y="26" width="240" height="8" as="geometry" />
        </mxCell>
        <mxCell id="KOgZ6uvFbi3_sXAGqL3p-341" value="+ affiche () : void" style="text;strokeColor=none;fillColor=none;align=left;verticalAlign=top;spacingLeft=4;spacingRight=4;overflow=hidden;rotatable=0;points=[[0,0.5],[1,0.5]];portConstraint=eastwest;" parent="KOgZ6uvFbi3_sXAGqL3p-318" vertex="1">
          <mxGeometry y="34" width="240" height="26" as="geometry" />
        </mxCell>
        <mxCell id="TGnBtDwXIPw3IA33v4NN-2" style="edgeStyle=orthogonalEdgeStyle;rounded=0;orthogonalLoop=1;jettySize=auto;html=1;exitX=1;exitY=0.5;exitDx=0;exitDy=0;entryX=0;entryY=0.5;entryDx=0;entryDy=0;" parent="WIyWlLk6GJQsqaUBKTNV-1" source="X6uU-ZBayT8kRttCf6og-32" target="KOgZ6uvFbi3_sXAGqL3p-91" edge="1">
          <mxGeometry relative="1" as="geometry" />
        </mxCell>
        <mxCell id="TGnBtDwXIPw3IA33v4NN-11" value="Editeur" style="swimlane;fontStyle=1;align=center;verticalAlign=top;childLayout=stackLayout;horizontal=1;startSize=26;horizontalStack=0;resizeParent=1;resizeParentMax=0;resizeLast=0;collapsible=1;marginBottom=0;" parent="WIyWlLk6GJQsqaUBKTNV-1" vertex="1">
          <mxGeometry x="600" y="-759" width="200" height="138" as="geometry">
            <mxRectangle x="250" y="40" width="60" height="26" as="alternateBounds" />
          </mxGeometry>
        </mxCell>
        <mxCell id="TGnBtDwXIPw3IA33v4NN-21" value="+ _variableDuNiveau : Boite[]" style="text;strokeColor=none;fillColor=none;align=left;verticalAlign=top;spacingLeft=4;spacingRight=4;overflow=hidden;rotatable=0;points=[[0,0.5],[1,0.5]];portConstraint=eastwest;" parent="TGnBtDwXIPw3IA33v4NN-11" vertex="1">
          <mxGeometry y="26" width="200" height="26" as="geometry" />
        </mxCell>
        <mxCell id="TGnBtDwXIPw3IA33v4NN-23" value="" style="line;strokeWidth=1;fillColor=none;align=left;verticalAlign=middle;spacingTop=-1;spacingLeft=3;spacingRight=3;rotatable=0;labelPosition=right;points=[];portConstraint=eastwest;" parent="TGnBtDwXIPw3IA33v4NN-11" vertex="1">
          <mxGeometry y="52" width="200" height="8" as="geometry" />
        </mxCell>
        <mxCell id="1KywXePy_wr7bTlzyGo3-0" style="edgeStyle=orthogonalEdgeStyle;rounded=0;orthogonalLoop=1;jettySize=auto;html=1;exitX=1;exitY=0.5;exitDx=0;exitDy=0;entryX=1;entryY=0.5;entryDx=0;entryDy=0;" edge="1" parent="TGnBtDwXIPw3IA33v4NN-11" source="TGnBtDwXIPw3IA33v4NN-24" target="TGnBtDwXIPw3IA33v4NN-25">
          <mxGeometry relative="1" as="geometry">
            <Array as="points">
              <mxPoint x="220" y="73" />
              <mxPoint x="220" y="99" />
            </Array>
          </mxGeometry>
        </mxCell>
        <mxCell id="1KywXePy_wr7bTlzyGo3-1" style="edgeStyle=orthogonalEdgeStyle;rounded=0;orthogonalLoop=1;jettySize=auto;html=1;exitX=1;exitY=0.5;exitDx=0;exitDy=0;entryX=1;entryY=0.5;entryDx=0;entryDy=0;" edge="1" parent="TGnBtDwXIPw3IA33v4NN-11" source="TGnBtDwXIPw3IA33v4NN-24" target="TGnBtDwXIPw3IA33v4NN-26">
          <mxGeometry relative="1" as="geometry" />
        </mxCell>
        <mxCell id="TGnBtDwXIPw3IA33v4NN-24" value="+ affiche () : void" style="text;strokeColor=none;fillColor=none;align=left;verticalAlign=top;spacingLeft=4;spacingRight=4;overflow=hidden;rotatable=0;points=[[0,0.5],[1,0.5]];portConstraint=eastwest;" parent="TGnBtDwXIPw3IA33v4NN-11" vertex="1">
          <mxGeometry y="60" width="200" height="26" as="geometry" />
        </mxCell>
        <mxCell id="TGnBtDwXIPw3IA33v4NN-25" value="+ afficheGrille () : void" style="text;strokeColor=none;fillColor=none;align=left;verticalAlign=top;spacingLeft=4;spacingRight=4;overflow=hidden;rotatable=0;points=[[0,0.5],[1,0.5]];portConstraint=eastwest;" parent="TGnBtDwXIPw3IA33v4NN-11" vertex="1">
          <mxGeometry y="86" width="200" height="26" as="geometry" />
        </mxCell>
        <mxCell id="TGnBtDwXIPw3IA33v4NN-26" value="+ afficheVariable () : void" style="text;strokeColor=none;fillColor=none;align=left;verticalAlign=top;spacingLeft=4;spacingRight=4;overflow=hidden;rotatable=0;points=[[0,0.5],[1,0.5]];portConstraint=eastwest;" parent="TGnBtDwXIPw3IA33v4NN-11" vertex="1">
          <mxGeometry y="112" width="200" height="26" as="geometry" />
        </mxCell>
        <mxCell id="TGnBtDwXIPw3IA33v4NN-33" value="Popup" style="swimlane;fontStyle=1;align=center;verticalAlign=top;childLayout=stackLayout;horizontal=1;startSize=26;horizontalStack=0;resizeParent=1;resizeParentMax=0;resizeLast=0;collapsible=1;marginBottom=0;" parent="WIyWlLk6GJQsqaUBKTNV-1" vertex="1">
          <mxGeometry x="320" y="-770" width="160" height="110" as="geometry">
            <mxRectangle x="250" y="40" width="60" height="26" as="alternateBounds" />
          </mxGeometry>
        </mxCell>
        <mxCell id="TGnBtDwXIPw3IA33v4NN-40" value="+ _menuPopup : Menu" style="text;strokeColor=none;fillColor=none;align=left;verticalAlign=top;spacingLeft=4;spacingRight=4;overflow=hidden;rotatable=0;points=[[0,0.5],[1,0.5]];portConstraint=eastwest;" parent="TGnBtDwXIPw3IA33v4NN-33" vertex="1">
          <mxGeometry y="26" width="160" height="26" as="geometry" />
        </mxCell>
        <mxCell id="TGnBtDwXIPw3IA33v4NN-43" value="" style="line;strokeWidth=1;fillColor=none;align=left;verticalAlign=middle;spacingTop=-1;spacingLeft=3;spacingRight=3;rotatable=0;labelPosition=right;points=[];portConstraint=eastwest;" parent="TGnBtDwXIPw3IA33v4NN-33" vertex="1">
          <mxGeometry y="52" width="160" height="8" as="geometry" />
        </mxCell>
        <mxCell id="TGnBtDwXIPw3IA33v4NN-56" style="edgeStyle=orthogonalEdgeStyle;rounded=0;orthogonalLoop=1;jettySize=auto;html=1;exitX=1;exitY=0.5;exitDx=0;exitDy=0;entryX=0;entryY=0.5;entryDx=0;entryDy=0;" parent="TGnBtDwXIPw3IA33v4NN-33" source="TGnBtDwXIPw3IA33v4NN-44" target="TGnBtDwXIPw3IA33v4NN-40" edge="1">
          <mxGeometry relative="1" as="geometry">
            <Array as="points">
              <mxPoint x="200" y="73" />
              <mxPoint x="200" y="-20" />
              <mxPoint x="-20" y="-20" />
              <mxPoint x="-20" y="39" />
            </Array>
          </mxGeometry>
        </mxCell>
        <mxCell id="TGnBtDwXIPw3IA33v4NN-44" value="+ affiche () : void" style="text;strokeColor=none;fillColor=none;align=left;verticalAlign=top;spacingLeft=4;spacingRight=4;overflow=hidden;rotatable=0;points=[[0,0.5],[1,0.5]];portConstraint=eastwest;" parent="TGnBtDwXIPw3IA33v4NN-33" vertex="1">
          <mxGeometry y="60" width="160" height="26" as="geometry" />
        </mxCell>
        <mxCell id="TGnBtDwXIPw3IA33v4NN-46" value="+ variableEdit () : void" style="text;strokeColor=none;fillColor=none;align=left;verticalAlign=top;spacingLeft=4;spacingRight=4;overflow=hidden;rotatable=0;points=[[0,0.5],[1,0.5]];portConstraint=eastwest;" parent="TGnBtDwXIPw3IA33v4NN-33" vertex="1">
          <mxGeometry y="86" width="160" height="24" as="geometry" />
        </mxCell>
        <mxCell id="TGnBtDwXIPw3IA33v4NN-47" style="edgeStyle=orthogonalEdgeStyle;rounded=0;orthogonalLoop=1;jettySize=auto;html=1;exitX=1;exitY=0.5;exitDx=0;exitDy=0;" parent="TGnBtDwXIPw3IA33v4NN-33" edge="1">
          <mxGeometry relative="1" as="geometry">
            <mxPoint x="160" y="39" as="sourcePoint" />
            <mxPoint x="160" y="39" as="targetPoint" />
          </mxGeometry>
        </mxCell>
        <mxCell id="TGnBtDwXIPw3IA33v4NN-55" style="edgeStyle=orthogonalEdgeStyle;rounded=0;orthogonalLoop=1;jettySize=auto;html=1;exitX=1;exitY=0.5;exitDx=0;exitDy=0;entryX=0;entryY=0.5;entryDx=0;entryDy=0;" parent="WIyWlLk6GJQsqaUBKTNV-1" source="X6uU-ZBayT8kRttCf6og-35" target="TGnBtDwXIPw3IA33v4NN-44" edge="1">
          <mxGeometry relative="1" as="geometry" />
        </mxCell>
        <mxCell id="TGnBtDwXIPw3IA33v4NN-70" style="edgeStyle=orthogonalEdgeStyle;rounded=0;orthogonalLoop=1;jettySize=auto;html=1;exitX=1;exitY=0.5;exitDx=0;exitDy=0;entryX=0;entryY=0.5;entryDx=0;entryDy=0;" parent="WIyWlLk6GJQsqaUBKTNV-1" source="KOgZ6uvFbi3_sXAGqL3p-98" target="KOgZ6uvFbi3_sXAGqL3p-128" edge="1">
          <mxGeometry relative="1" as="geometry">
            <Array as="points">
              <mxPoint x="560" y="-957" />
              <mxPoint x="560" y="-1015" />
            </Array>
          </mxGeometry>
        </mxCell>
        <mxCell id="TGnBtDwXIPw3IA33v4NN-74" style="edgeStyle=orthogonalEdgeStyle;rounded=0;orthogonalLoop=1;jettySize=auto;html=1;exitX=1;exitY=0.5;exitDx=0;exitDy=0;entryX=0;entryY=0.5;entryDx=0;entryDy=0;" parent="WIyWlLk6GJQsqaUBKTNV-1" source="KOgZ6uvFbi3_sXAGqL3p-99" target="X6uU-ZBayT8kRttCf6og-78" edge="1">
          <mxGeometry relative="1" as="geometry">
            <Array as="points">
              <mxPoint x="560" y="-931" />
              <mxPoint x="560" y="-783" />
            </Array>
          </mxGeometry>
        </mxCell>
        <mxCell id="TGnBtDwXIPw3IA33v4NN-75" style="edgeStyle=orthogonalEdgeStyle;rounded=0;orthogonalLoop=1;jettySize=auto;html=1;exitX=1;exitY=0.5;exitDx=0;exitDy=0;entryX=0;entryY=0.5;entryDx=0;entryDy=0;" parent="WIyWlLk6GJQsqaUBKTNV-1" source="KOgZ6uvFbi3_sXAGqL3p-103" target="TGnBtDwXIPw3IA33v4NN-24" edge="1">
          <mxGeometry relative="1" as="geometry" />
        </mxCell>
        <mxCell id="TGnBtDwXIPw3IA33v4NN-77" style="edgeStyle=orthogonalEdgeStyle;rounded=0;orthogonalLoop=1;jettySize=auto;html=1;exitX=1;exitY=0.5;exitDx=0;exitDy=0;entryX=0;entryY=0.5;entryDx=0;entryDy=0;" parent="WIyWlLk6GJQsqaUBKTNV-1" source="KOgZ6uvFbi3_sXAGqL3p-128" target="KOgZ6uvFbi3_sXAGqL3p-232" edge="1">
          <mxGeometry relative="1" as="geometry" />
        </mxCell>
        <mxCell id="TGnBtDwXIPw3IA33v4NN-78" style="edgeStyle=orthogonalEdgeStyle;rounded=0;orthogonalLoop=1;jettySize=auto;html=1;exitX=1;exitY=0.5;exitDx=0;exitDy=0;entryX=0;entryY=0.5;entryDx=0;entryDy=0;" parent="WIyWlLk6GJQsqaUBKTNV-1" source="KOgZ6uvFbi3_sXAGqL3p-128" target="KOgZ6uvFbi3_sXAGqL3p-341" edge="1">
          <mxGeometry relative="1" as="geometry" />
        </mxCell>
        <mxCell id="TGnBtDwXIPw3IA33v4NN-79" style="edgeStyle=orthogonalEdgeStyle;rounded=0;orthogonalLoop=1;jettySize=auto;html=1;exitX=1;exitY=0.5;exitDx=0;exitDy=0;entryX=0;entryY=0.5;entryDx=0;entryDy=0;" parent="WIyWlLk6GJQsqaUBKTNV-1" source="KOgZ6uvFbi3_sXAGqL3p-128" target="KOgZ6uvFbi3_sXAGqL3p-261" edge="1">
          <mxGeometry relative="1" as="geometry" />
        </mxCell>
        <mxCell id="TGnBtDwXIPw3IA33v4NN-82" style="edgeStyle=orthogonalEdgeStyle;rounded=0;orthogonalLoop=1;jettySize=auto;html=1;exitX=1;exitY=0.5;exitDx=0;exitDy=0;entryX=0;entryY=0.5;entryDx=0;entryDy=0;" parent="WIyWlLk6GJQsqaUBKTNV-1" source="TGnBtDwXIPw3IA33v4NN-40" target="X6uU-ZBayT8kRttCf6og-78" edge="1">
          <mxGeometry relative="1" as="geometry">
            <Array as="points">
              <mxPoint x="560" y="-731" />
              <mxPoint x="560" y="-783" />
            </Array>
          </mxGeometry>
        </mxCell>
        <mxCell id="TGnBtDwXIPw3IA33v4NN-83" style="edgeStyle=orthogonalEdgeStyle;rounded=0;orthogonalLoop=1;jettySize=auto;html=1;exitX=1;exitY=0.5;exitDx=0;exitDy=0;entryX=0;entryY=0.5;entryDx=0;entryDy=0;" parent="WIyWlLk6GJQsqaUBKTNV-1" source="X6uU-ZBayT8kRttCf6og-78" target="KOgZ6uvFbi3_sXAGqL3p-44" edge="1">
          <mxGeometry relative="1" as="geometry" />
        </mxCell>
        <mxCell id="1KywXePy_wr7bTlzyGo3-2" style="edgeStyle=orthogonalEdgeStyle;rounded=0;orthogonalLoop=1;jettySize=auto;html=1;exitX=1;exitY=0.5;exitDx=0;exitDy=0;entryX=0;entryY=0.5;entryDx=0;entryDy=0;" edge="1" parent="WIyWlLk6GJQsqaUBKTNV-1" source="TGnBtDwXIPw3IA33v4NN-21" target="KOgZ6uvFbi3_sXAGqL3p-91">
          <mxGeometry relative="1" as="geometry">
            <Array as="points">
              <mxPoint x="820" y="-720" />
              <mxPoint x="820" y="-1150" />
              <mxPoint x="280" y="-1150" />
              <mxPoint x="280" y="-1033" />
            </Array>
          </mxGeometry>
        </mxCell>
      </root>
    </mxGraphModel>
  </diagram>
</mxfile>
